<svg width="29" height="29" viewBox="0 0 29 29" fill="none" xmlns="http://www.w3.org/2000/svg">
<path d="M29 14.5C29 22.5081 22.5081 29 14.5 29C6.49187 29 0 22.5081 0 14.5C0 6.49187 6.49187 0 14.5 0C22.5081 0 29 6.49187 29 14.5Z" fill="#2EC5CE"/>
<path d="M9.37128 19.557C9.09971 19.8247 9.09476 20.2645 9.38517 20.5116C9.99685 21.0322 10.6855 21.4572 11.4278 21.7709C12.3825 22.1744 13.4073 22.3859 14.4438 22.3933C15.4802 22.4007 16.508 22.204 17.4683 21.8142C18.2151 21.5111 18.9097 21.096 19.5288 20.5843C19.8227 20.3413 19.824 19.9015 19.5563 19.6299L14.985 14.9927C14.7173 14.7211 14.2801 14.718 14.0086 14.9857L9.37128 19.557Z" fill="white"/>
<path d="M21.5392 14.6987C21.9203 14.7121 22.2433 14.4134 22.223 14.0326C22.1265 12.221 21.4021 10.4908 20.1626 9.14659C18.7664 7.63241 16.8293 6.73002 14.7719 6.63529C12.7144 6.54056 10.7026 7.26115 9.17321 8.64062C7.81542 9.8653 6.9351 11.5215 6.67253 13.3166C6.61734 13.694 6.91149 14.021 7.29221 14.0427L8.98962 14.1396C9.37034 14.1613 9.69152 13.8684 9.76826 13.4948C9.97048 12.5106 10.4819 11.6095 11.2368 10.9286C12.1638 10.0925 13.3831 9.65574 14.6302 9.71315C15.8772 9.77057 17.0512 10.3175 17.8974 11.2352C18.5866 11.9827 19.0131 12.9269 19.124 13.9256C19.1661 14.3046 19.459 14.6258 19.8401 14.6392L21.5392 14.6987Z" fill="white"/>
</svg>
