<?xml version="1.0" encoding="UTF-8"?>
<svg version="1.1" xmlns="http://www.w3.org/2000/svg" width="1613" height="1613">
<path d="M0 0 C1.68038459 -0.00702058 3.3607689 -0.01410741 5.04115295 -0.02125549 C10.38160586 -0.04065912 15.7220154 -0.04568936 21.0625 -0.046875 C21.97172588 -0.04731686 22.88095177 -0.04775871 23.81772995 -0.04821396 C49.89681402 -0.05486373 75.8647131 0.01520869 101.81103516 2.94989014 C104.18301273 3.21667974 106.55614748 3.47065399 108.9296875 3.72314453 C195.07548451 12.99103358 278.73623946 35.98952057 430.32666016 109.57421875 C432.85833823 111.08156803 435.40094903 112.56780572 437.94921875 114.046875 C448.34714041 120.12365194 458.41850658 126.65158557 468.4375 133.328125 C469.06199036 133.74378723 469.68648071 134.15944946 470.32989502 134.58770752 C482.13131124 142.45674424 493.73503801 150.600654 505.0625 159.140625 C505.7227417 159.63731689 506.3829834 160.13400879 507.06323242 160.64575195 C525.17559902 174.31934371 542.87771255 188.60052246 559.59765625 203.953125 C561.64365954 205.82079203 563.71267157 207.64682097 565.8125 209.453125 C577.1631242 219.37926847 587.8935979 229.93177045 598.5625 240.578125 C599.12862 241.1416568 599.69473999 241.7051886 600.27801514 242.28579712 C605.88130752 247.86888703 611.43786583 253.45226417 616.57714844 259.47265625 C618.94599163 262.23241308 621.44980509 264.86345093 623.9375 267.515625 C628.40076707 272.31308128 632.63224429 277.23474873 636.734375 282.34765625 C638.87670035 284.97523985 641.07403751 287.53728018 643.30126953 290.09228516 C650.07667532 297.87469794 656.35215437 305.97963256 662.55908203 314.21923828 C663.920269 316.01543921 665.29606558 317.79833207 666.68359375 319.57421875 C690.52182419 350.12529488 711.4047568 383.28332667 730.0625 417.203125 C730.96403809 418.841604 730.96403809 418.841604 731.88378906 420.51318359 C775.17079681 499.51930379 804.47701845 585.30099486 827.30078125 739.76171875 C827.36404099 740.46563751 827.42730072 741.16955627 827.49247742 741.89480591 C828.69685684 755.97786852 829.22895005 770.01110718 829.265625 784.140625 C829.27264558 785.82100959 829.27973241 787.5013939 829.28688049 789.18177795 C829.30628412 794.52223086 829.31131436 799.8626404 829.3125 805.203125 C829.31294186 806.11235088 829.31338371 807.02157677 829.31383896 807.95835495 C829.32048873 834.03743902 829.25041631 860.0053381 826.31573486 885.95166016 C826.04894526 888.32363773 825.79497101 890.69677248 825.54248047 893.0703125 C816.27459142 979.21610951 793.27610443 1062.87686446 719.69140625 1214.46728516 C718.18405697 1216.99896323 716.69781928 1219.54157403 715.21875 1222.08984375 C709.14197306 1232.48776541 702.61403943 1242.55913158 695.9375 1252.578125 C695.52183777 1253.20261536 695.10617554 1253.82710571 694.67791748 1254.47052002 C686.80888076 1266.27193624 678.664971 1277.87566301 670.125 1289.203125 C669.62830811 1289.8633667 669.13161621 1290.5236084 668.61987305 1291.20385742 C654.94628129 1309.31622402 640.66510254 1327.01833755 625.3125 1343.73828125 C623.44483297 1345.78428454 621.61880403 1347.85329657 619.8125 1349.953125 C609.88635653 1361.3037492 599.33385455 1372.0342229 588.6875 1382.703125 C588.1239682 1383.269245 587.5604364 1383.83536499 586.97982788 1384.41864014 C581.39673797 1390.02193252 575.81336083 1395.57849083 569.79296875 1400.71777344 C567.03321192 1403.08661663 564.40217407 1405.59043009 561.75 1408.078125 C556.95254372 1412.54139207 552.03087627 1416.77286929 546.91796875 1420.875 C544.29038515 1423.01732535 541.72834482 1425.21466251 539.17333984 1427.44189453 C531.39092706 1434.21730032 523.28599244 1440.49277937 515.04638672 1446.69970703 C513.25018579 1448.060894 511.46729293 1449.43669058 509.69140625 1450.82421875 C479.14033012 1474.66244919 445.98229833 1495.5453818 412.0625 1514.203125 C410.424021 1515.10466309 410.424021 1515.10466309 408.75244141 1516.02441406 C329.74632121 1559.31142181 243.96463014 1588.61764345 89.50390625 1611.44140625 C88.79998749 1611.50466599 88.09606873 1611.56792572 87.37081909 1611.63310242 C73.28775648 1612.83748184 59.25451782 1613.36957505 45.125 1613.40625 C43.44461541 1613.41327058 41.7642311 1613.42035741 40.08384705 1613.42750549 C34.74339414 1613.44690912 29.4029846 1613.45193936 24.0625 1613.453125 C23.15327412 1613.45356686 22.24404823 1613.45400871 21.30727005 1613.45446396 C-4.77181402 1613.46111373 -30.7397131 1613.39104131 -56.68603516 1610.45635986 C-59.05801273 1610.18957026 -61.43114748 1609.93559601 -63.8046875 1609.68310547 C-149.95048451 1600.41521642 -233.61123946 1577.41672943 -385.20166016 1503.83203125 C-387.73333823 1502.32468197 -390.27594903 1500.83844428 -392.82421875 1499.359375 C-403.22214041 1493.28259806 -413.29350658 1486.75466443 -423.3125 1480.078125 C-424.24923553 1479.45463165 -424.24923553 1479.45463165 -425.20489502 1478.81854248 C-437.00631124 1470.94950576 -448.61003801 1462.805596 -459.9375 1454.265625 C-460.92786255 1453.52058716 -460.92786255 1453.52058716 -461.93823242 1452.76049805 C-480.05059902 1439.08690629 -497.75271255 1424.80572754 -514.47265625 1409.453125 C-516.51865954 1407.58545797 -518.58767157 1405.75942903 -520.6875 1403.953125 C-532.0381242 1394.02698153 -542.7685979 1383.47447955 -553.4375 1372.828125 C-554.00362 1372.2645932 -554.56973999 1371.7010614 -555.15301514 1371.12045288 C-560.75630752 1365.53736297 -566.31286583 1359.95398583 -571.45214844 1353.93359375 C-573.82099163 1351.17383692 -576.32480509 1348.54279907 -578.8125 1345.890625 C-583.27576707 1341.09316872 -587.50724429 1336.17150127 -591.609375 1331.05859375 C-593.75170035 1328.43101015 -595.94903751 1325.86896982 -598.17626953 1323.31396484 C-604.95167532 1315.53155206 -611.22715437 1307.42661744 -617.43408203 1299.18701172 C-618.795269 1297.39081079 -620.17106558 1295.60791793 -621.55859375 1293.83203125 C-645.39682419 1263.28095512 -666.2797568 1230.12292333 -684.9375 1196.203125 C-685.53852539 1195.11080566 -686.13955078 1194.01848633 -686.75878906 1192.89306641 C-730.04579681 1113.88694621 -759.35201845 1028.10525514 -782.17578125 873.64453125 C-782.23904099 872.94061249 -782.30230072 872.23669373 -782.36747742 871.51144409 C-783.57185684 857.42838148 -784.10395005 843.39514282 -784.140625 829.265625 C-784.14764558 827.58524041 -784.15473241 825.9048561 -784.16188049 824.22447205 C-784.18128412 818.88401914 -784.18631436 813.5436096 -784.1875 808.203125 C-784.18794186 807.29389912 -784.18838371 806.38467323 -784.18883896 805.44789505 C-784.19548873 779.36881098 -784.12541631 753.4009119 -781.19073486 727.45458984 C-780.92394526 725.08261227 -780.66997101 722.70947752 -780.41748047 720.3359375 C-771.14959142 634.19014049 -748.15110443 550.52938554 -674.56640625 398.93896484 C-673.05905697 396.40728677 -671.57281928 393.86467597 -670.09375 391.31640625 C-664.01697306 380.91848459 -657.48903943 370.84711842 -650.8125 360.828125 C-650.39683777 360.20363464 -649.98117554 359.57914429 -649.55291748 358.93572998 C-641.68388076 347.13431376 -633.539971 335.53058699 -625 324.203125 C-624.50330811 323.5428833 -624.00661621 322.8826416 -623.49487305 322.20239258 C-609.82128129 304.09002598 -595.54010254 286.38791245 -580.1875 269.66796875 C-578.31983297 267.62196546 -576.49380403 265.55295343 -574.6875 263.453125 C-564.76135653 252.1025008 -554.20885455 241.3720271 -543.5625 230.703125 C-542.9989682 230.137005 -542.4354364 229.57088501 -541.85482788 228.98760986 C-536.27173797 223.38431748 -530.68836083 217.82775917 -524.66796875 212.68847656 C-521.90821192 210.31963337 -519.27717407 207.81581991 -516.625 205.328125 C-511.82754372 200.86485793 -506.90587627 196.63338071 -501.79296875 192.53125 C-499.16538515 190.38892465 -496.60334482 188.19158749 -494.04833984 185.96435547 C-486.26592706 179.18894968 -478.16099244 172.91347063 -469.92138672 166.70654297 C-468.12518579 165.345356 -466.34229293 163.96955942 -464.56640625 162.58203125 C-434.01533012 138.74380081 -400.85729833 117.8608682 -366.9375 99.203125 C-365.84518066 98.60209961 -364.75286133 98.00107422 -363.62744141 97.38183594 C-284.62132121 54.09482819 -198.83963014 24.78860655 -44.37890625 1.96484375 C-43.67498749 1.90158401 -42.97106873 1.83832428 -42.24581909 1.77314758 C-28.16275648 0.56876816 -14.12951782 0.03667495 0 0 Z " fill="#FF8D6F" transform="translate(783.9375,-0.203125)"/>
<path d="M0 0 C37.95 0 75.9 0 115 0 C115.02431474 34.60502156 115.02431474 34.60502156 115.0333252 48.03218079 C115.03416668 49.28592441 115.03416668 49.28592441 115.03502516 50.56499618 C115.07214814 105.95805687 115.10565896 161.35111714 115.12702942 216.7441864 C115.12744359 217.81498415 115.12785776 218.8857819 115.12828448 219.98902806 C115.13726505 243.26528038 115.14557533 266.54153289 115.15319599 289.8177857 C115.15693771 301.23391121 115.16082741 312.65003667 115.16479492 324.06616211 C115.1651872 325.20215052 115.16557948 326.33813893 115.16598364 327.50855122 C115.17874757 364.27079696 115.20126641 401.03302879 115.22889166 437.79526611 C115.25724922 475.6010498 115.27567016 513.4068258 115.28174497 551.21261995 C115.28260932 556.56322174 115.28358623 561.91382351 115.28463173 567.26442528 C115.284834 568.31740929 115.28503627 569.3703933 115.28524467 570.45528592 C115.28877767 587.3453125 115.30265885 604.23531518 115.3204961 621.12533205 C115.33824302 638.14189372 115.34488276 655.15843191 115.34050413 672.17500249 C115.33823766 682.26124626 115.34416747 692.34740346 115.36239263 702.43363145 C115.37377621 709.20150597 115.37389873 715.96932488 115.36549544 722.73720349 C115.36103524 726.57404811 115.36086645 730.41073104 115.37464955 734.2475572 C115.42839444 750.1634179 114.97126965 765.92408168 113.59073353 781.78439617 C113.49567286 782.87658497 113.49567286 782.87658497 113.39869178 783.99083819 C112.26177786 796.78335467 110.58602707 809.41769283 108 822 C107.80067871 822.97453125 107.60135742 823.9490625 107.39599609 824.953125 C102.17656577 849.76852274 94.31286946 874.27798133 83 897 C82.60844727 897.7940625 82.21689453 898.588125 81.81347656 899.40625 C73.75636627 915.61136467 64.25084424 930.81499777 53 945 C52.26394531 945.94101563 51.52789063 946.88203125 50.76953125 947.8515625 C37.84924941 963.75028768 22.75854589 979.16761113 6 991 C5.38527832 991.44311523 4.77055664 991.88623047 4.13720703 992.34277344 C-18.81164664 1008.84751989 -43.59934809 1021.66236053 -70.26074219 1031.03613281 C-72.71461489 1031.89958107 -75.15848485 1032.78629916 -77.6015625 1033.6796875 C-130.57562929 1052.64793742 -194.54754784 1056.40729516 -250 1049 C-251.81661133 1048.75805908 -251.81661133 1048.75805908 -253.66992188 1048.51123047 C-311.08902521 1040.6877748 -364.8788588 1022.95018219 -411 987 C-411.87785156 986.31679687 -412.75570312 985.63359375 -413.66015625 984.9296875 C-469.24111624 940.56314801 -499.45230697 875.9900635 -511 807 C-521.60244897 711.57795929 -515 615.00925881 -515 519 C-345.05 519 -175.1 519 0 519 C0 347.73 0 176.46 0 0 Z " fill="#FFFEFE" transform="translate(1010,284)"/>
<path d="M0 0 C132.33 0 264.66 0 401 0 C401 121.15436525 401 121.15436525 396.875 139.375 C396.66399658 140.31996338 396.45299316 141.26492676 396.2355957 142.23852539 C390.44190941 166.87343473 379.67427294 192.28587344 362.04296875 210.81640625 C359.94309983 212.99453459 359.94309983 212.99453459 358.04296875 215.515625 C354.31773402 220.04573836 349.60925587 223.41120127 345 227 C344.02546875 227.78632812 343.0509375 228.57265625 342.046875 229.3828125 C311.99770617 252.40077187 273.78376561 260.14975939 237 264 C236.29317078 264.08333084 235.58634155 264.16666168 234.85809326 264.2525177 C228.24683378 264.9899908 221.71127839 265.16093041 215.0625 265.16796875 C213.94294922 265.17129715 212.82339844 265.17462555 211.66992188 265.17805481 C209.31006273 265.18309225 206.95019654 265.18546413 204.59033203 265.18530273 C201.03796172 265.18747677 197.48590878 265.20563281 193.93359375 265.22460938 C181.12761542 265.25632981 168.68351732 264.75567984 156 263 C154.09163674 262.78211481 152.18284147 262.56794335 150.2734375 262.359375 C114.89020426 258.0994685 79.41397725 246.47209817 52 223 C51.19046875 222.32453125 50.3809375 221.6490625 49.546875 220.953125 C23.79083291 198.760812 10.0618121 166.88623811 4 134 C3.86996582 133.31131836 3.73993164 132.62263672 3.60595703 131.91308594 C3.18809977 129.69337302 2.77932856 127.47221526 2.375 125.25 C2.18997925 124.24042236 2.18997925 124.24042236 2.0012207 123.21044922 C-5.10875854 82.75491336 0 41.07556679 0 0 Z " fill="#FF8D6F" transform="translate(609,937)"/>
<path d="M0 0 C36.3 0 72.6 0 110 0 C112.66150798 8.64990093 115.19606574 17.25860236 117.5 26 C120.09280524 35.79509367 120.09280524 35.79509367 123 45.5 C125.00497073 51.79766448 126.67647258 58.17707571 128.375 64.5625 C130.47089095 72.43268199 132.62323458 80.2723018 135 88.0625 C139.52317691 102.90195904 143.6394809 117.85643644 147.62792969 132.84765625 C150.41145634 143.30847981 153.37751848 153.68158673 156.5859375 164.02001953 C158.60671703 170.57498029 160.31316113 177.13817138 161.9140625 183.80859375 C163.20048441 188.95302758 164.8022145 193.99988573 166.375 199.0625 C169.07889681 207.77249951 171.4815952 216.51936522 173.72558594 225.35791016 C175.75719058 233.27253462 178.11131935 241.06513739 180.53515625 248.8671875 C182.57145855 255.46480694 184.2968828 262.06630411 185.90625 268.78125 C187.23131203 274.08149812 188.88283896 279.2831332 190.5 284.5 C192.50548382 290.96957334 194.42121489 297.41265521 196 304 C197.54570488 310.44043701 199.41018277 316.73798101 201.375 323.0625 C204.07889681 331.77249951 206.4815952 340.51936522 208.72558594 349.35791016 C210.75719058 357.27253462 213.11131935 365.06513739 215.53515625 372.8671875 C217.57145855 379.46480694 219.2968828 386.06630411 220.90625 392.78125 C222.48312979 399.08876916 224.49901483 405.27348762 226.42480469 411.48095703 C228.58450271 418.49355489 230.44820779 425.52613513 232.15625 432.66015625 C232.90027125 435.60524036 233.75840494 438.44330134 234.75 441.3125 C236 445 236 445 236 448 C199.7 448 163.4 448 126 448 C118.04364326 421.85768501 118.04364326 421.85768501 115.9375 413.375 C113.63599467 404.34988301 111.15119939 395.3928666 108.56640625 386.4453125 C106.84186871 380.47348537 105.1702211 374.4872057 103.5 368.5 C101.12113436 359.98076455 98.71252823 351.47081547 96.27392578 342.96850586 C93.97008206 334.92342236 91.71656291 326.86448915 89.46484375 318.8046875 C87.69648817 312.47790419 85.90672501 306.15790435 84.09375 299.84375 C82.22856135 293.28894417 80.40108712 286.72355435 78.56640625 280.16015625 C77.05851028 274.76926635 75.54487814 269.38043767 74 264 C71.81709713 256.39747621 69.69578262 248.77779975 67.56640625 241.16015625 C66.05851028 235.76926635 64.54487814 230.38043767 63 225 C61.17802801 218.65424285 59.40144682 212.29611224 57.625 205.9375 C55.44005287 198.11817858 53.23837778 190.30419603 51 182.5 C48.45075789 173.61196272 45.95279471 164.71005704 43.46484375 155.8046875 C41.69648817 149.47790419 39.90672501 143.15790435 38.09375 136.84375 C36.22856135 130.28894417 34.40108712 123.72355435 32.56640625 117.16015625 C31.05851028 111.76926635 29.54487814 106.38043767 28 101 C26.17802801 94.65424285 24.40144682 88.29611224 22.625 81.9375 C20.44005287 74.11817858 18.23837778 66.30419603 16 58.5 C13.45414351 49.62376686 10.95749732 40.73422538 8.47583008 31.83984375 C6.63176372 25.23534467 4.75766465 18.64146524 2.82421875 12.0625 C1.75100497 8.07482416 0.89582946 4.03123257 0 0 Z " fill="#FFFEFE" transform="translate(495,285)"/>
<path d="M0 0 C36.3 0 72.6 0 110 0 C111.32 5.28 112.64 10.56 114 16 C115.46810642 21.65653322 115.46810642 21.65653322 116.94213867 27.31152344 C119.89973793 38.64282107 122.74836713 49.98014112 125.27709961 61.41650391 C126.5530382 67.15041791 127.97137237 72.82848434 129.5 78.5 C131.29772282 85.17785528 132.92557654 91.87667339 134.4375 98.625 C138.19496613 115.38601448 142.20478923 132.07203146 146.5625 148.6875 C149.15728135 158.58569307 151.53244802 168.51012034 153.76171875 178.49609375 C157.3267826 194.43993119 161.30633581 210.27382129 165.45117188 226.07543945 C168.63784746 238.30439612 171.52148022 250.6074011 174 263 C137.7 263 101.4 263 64 263 C61.95367212 255.83785243 60.05193504 248.64838491 58.1875 241.4375 C58.00914612 240.74815369 57.83079224 240.05880737 57.64703369 239.34857178 C54.98991857 229.05727238 52.51262524 218.73823734 50.203125 208.36328125 C46.91031617 193.58666487 43.2652751 178.89621091 39.4375 164.25 C36.75282955 153.97563892 34.20187416 143.6819133 31.78222656 133.34228516 C30.02906516 125.85140511 28.26692332 118.36264518 26.5 110.875 C26.30235046 110.03714966 26.10470093 109.19929932 25.90106201 108.33605957 C23.60470451 98.6139411 21.26436357 88.91377464 18.6652832 79.26733398 C15.68841675 68.19595151 13.1693365 57.00908161 10.56303406 45.84602356 C9.86375326 42.85290662 9.1628076 39.86018035 8.46182251 36.86746216 C7.95330801 34.6926089 7.44762465 32.51711154 6.94213867 30.34155273 C5.03535193 22.17482078 2.98338275 14.07006812 0.73657227 5.98974609 C0 3 0 3 0 0 Z " fill="#FFFEFE" transform="translate(755,285)"/>
</svg>
